<svg xmlns="http://www.w3.org/2000/svg" viewBox="0 0 32 32">
  <rect width="32" height="32" rx="7" fill="#000"/>
  <g fill="none" stroke-linecap="round">
    <path d="M21.5 4.8 A 10 10 0 0 1 28.2 12.8" stroke="#ef4444" stroke-width="1.5"/>
    <path d="M22.2 6.4 A 9 9 0 0 1 27.6 13.6" stroke="#f97316" stroke-width="1.3"/>
    <path d="M22.9 8 A 8 8 0 0 1 27 14.4" stroke="#eab308" stroke-width="1.15"/>
    <path d="M23.6 9.7 A 7 7 0 0 1 26.4 15.3" stroke="#22c55e" stroke-width="1.05"/>
    <path d="M24.2 11.4 A 6 6 0 0 1 25.8 16" stroke="#3b82f6" stroke-width="0.95"/>
  </g>
  <g fill="none" stroke="#fff" stroke-width="1.85" stroke-linecap="round" stroke-linejoin="round">
    <path d="M16 5.6v1.6"/>
    <path d="M22.5 22h-13l1.7-2.1a3 3 0 0 0 .65-1.87V15a5.15 5.15 0 0 1 10.3 0v3.03c0 .68.23 1.34.65 1.87Z"/>
    <path d="M12.7 23.6a3.3 3.3 0 0 0 6.6 0"/>
  </g>
</svg>
